<?xml version="1.0" encoding="utf-8"?>
<!-- Generator: Adobe Illustrator 25.1.0, SVG Export Plug-In . SVG Version: 6.00 Build 0)  -->
<svg version="1.1" id="Camada_1" xmlns="http://www.w3.org/2000/svg" xmlns:xlink="http://www.w3.org/1999/xlink" x="0px" y="0px"
	 viewBox="0 0 60.1 80.3" style="enable-background:new 0 0 60.1 80.3;" xml:space="preserve">
<style type="text/css">
	.st0{clip-path:url(#SVGID_2_);fill:url(#SVGID_3_);}
	.st1{clip-path:url(#SVGID_5_);fill:url(#SVGID_6_);}
	.st2{clip-path:url(#SVGID_8_);fill:url(#SVGID_9_);}
	.st3{fill:#FFFFFF;}
</style>
<g>
	<g>
		<g>
			<g>
				<defs>
					<path id="SVGID_1_" d="M1.6,53.3V2.4C1.6,2,2,1.6,2.3,1.6h12.9c0.4,0,0.7,0.3,0.7,0.7v51c0,0.4-0.3,0.7-0.7,0.7H2.3
						C2,54,1.6,53.6,1.6,53.3 M2.3,0C1,0,0,1.1,0,2.3v51c0,1.4,1.1,2.3,2.3,2.3h12.9c1.4,0,2.3-1.1,2.3-2.3V2.4
						c0-1.4-1.1-2.3-2.3-2.3H2.3V0z"/>
				</defs>
				<clipPath id="SVGID_2_">
					<use xlink:href="#SVGID_1_"  style="overflow:visible;"/>
				</clipPath>
				
					<linearGradient id="SVGID_3_" gradientUnits="userSpaceOnUse" x1="-755.0348" y1="418.3083" x2="-753.7269" y2="418.3083" gradientTransform="matrix(0 -42.5193 42.5193 0 -17777.3398 -32047.9375)">
					<stop  offset="0" style="stop-color:#A61680"/>
					<stop  offset="5.127970e-03" style="stop-color:#A61680"/>
					<stop  offset="1" style="stop-color:#EB6608"/>
				</linearGradient>
				<rect class="st0" width="17.7" height="55.6"/>
			</g>
		</g>
		<g>
			<g>
				<defs>
					<path id="SVGID_4_" d="M44.2,53.3V2.4c0-0.4,0.4-0.8,0.7-0.8h12.9c0.4,0,0.7,0.3,0.7,0.7v51c0,0.4-0.3,0.7-0.7,0.7H44.9
						C44.6,54,44.2,53.6,44.2,53.3 M44.9,0c-1.4,0-2.3,1.1-2.3,2.3v51c0,1.4,1.1,2.3,2.3,2.3h12.9c1.4,0,2.3-1.1,2.3-2.3V2.4
						c0-1.4-1.1-2.3-2.3-2.3H44.9V0z"/>
				</defs>
				<clipPath id="SVGID_5_">
					<use xlink:href="#SVGID_4_"  style="overflow:visible;"/>
				</clipPath>
				
					<linearGradient id="SVGID_6_" gradientUnits="userSpaceOnUse" x1="-755.0348" y1="418.5434" x2="-753.7269" y2="418.5434" gradientTransform="matrix(0 -42.5193 42.5193 0 -17744.7734 -32047.9375)">
					<stop  offset="0" style="stop-color:#A61680"/>
					<stop  offset="5.127970e-03" style="stop-color:#A61680"/>
					<stop  offset="1" style="stop-color:#EB6608"/>
				</linearGradient>
				<rect x="42.6" class="st1" width="17.7" height="55.6"/>
			</g>
		</g>
		<g>
			<g>
				<defs>
					<path id="SVGID_7_" d="M23,53.3V10.5c0-0.4,0.3-0.7,0.7-0.7h12.9c0.4,0,0.7,0.3,0.7,0.7v42.8c0,0.4-0.3,0.7-0.7,0.7H23.7
						C23.3,54,23,53.6,23,53.3 M23.7,8c-1.4,0-2.3,1.1-2.3,2.3v43c0,1.4,1.1,2.3,2.3,2.3h12.9c1.4,0,2.3-1.1,2.3-2.3V10.5
						c0-1.4-1.1-2.3-2.3-2.3H23.7V8z"/>
				</defs>
				<clipPath id="SVGID_8_">
					<use xlink:href="#SVGID_7_"  style="overflow:visible;"/>
				</clipPath>
				
					<linearGradient id="SVGID_9_" gradientUnits="userSpaceOnUse" x1="-756.1577" y1="420.9172" x2="-754.8504" y2="420.9172" gradientTransform="matrix(0 -36.36 36.36 0 -15274.3633 -27438.2812)">
					<stop  offset="0" style="stop-color:#A61680"/>
					<stop  offset="5.127970e-03" style="stop-color:#A61680"/>
					<stop  offset="1" style="stop-color:#EB6608"/>
				</linearGradient>
				<rect x="21.3" y="8" class="st2" width="17.7" height="47.6"/>
			</g>
		</g>
	</g>
	<g>
		<path class="st3" d="M13.7,60.2v12c0,0.2-0.2,0.4-0.4,0.4h-1.6c-0.2,0-0.4-0.2-0.4-0.4v-8.6l-1.4,2.1l-2.6,3.7
			c-0.2,0.3-0.6,0.3-0.8,0l-2.6-3.7l-1.5-2.1v8.6c0,0.2-0.2,0.4-0.4,0.4H0.4c-0.2,0-0.4-0.2-0.4-0.4v-12c0-0.2,0.2-0.4,0.4-0.4h2.1
			c0.1,0,0.3,0.1,0.3,0.2l3.4,4.8l0.7,0.9l0.7-0.9L11,60c0.1-0.1,0.2-0.2,0.3-0.2h2.1C13.6,59.8,13.7,60,13.7,60.2"/>
		<path class="st3" d="M27.9,59.8h-3c-0.2,0-0.3,0.1-0.4,0.3l-4.7,12c-0.1,0.3,0.1,0.6,0.4,0.6h1.7c0.2,0,0.3-0.1,0.4-0.3l0.5-1.2
			l0.2-0.5l0.9-2.4l0.4-1.1l1.3-3.2l0.8-1.9l0.7,1.9l1.2,3.3l0.4,1.1l0.9,2.4l0.2,0.5l0.5,1.2c0.1,0.2,0.2,0.3,0.4,0.3h1.7
			c0.3,0,0.5-0.3,0.4-0.6l-4.6-12C28.2,59.9,28.1,59.8,27.9,59.8"/>
		<path class="st3" d="M49.6,59.8c0.3,0,0.5,0.4,0.3,0.6l-3.6,5.4L46,66.2l0.3,0.4l3.6,5.3c0.2,0.3,0,0.6-0.3,0.6h-1.9
			c-0.1,0-0.3-0.1-0.3-0.2l-2.1-3.1l-0.5-0.7c-0.1-0.1-0.3-0.1-0.4,0l-0.5,0.9l-2.1,3.1c-0.1,0.1-0.2,0.2-0.3,0.2h-1.9
			c-0.3,0-0.5-0.4-0.3-0.6l3.6-5.3l0.3-0.4l-0.4-0.6l-3.6-5.3c-0.2-0.3,0-0.6,0.3-0.6h1.9c0.1,0,0.3,0.1,0.3,0.2l2.1,3.1l0.5,0.7
			c0.1,0.1,0.3,0.1,0.4,0l0.5-0.7l2.1-3.1c0.1-0.1,0.2-0.2,0.3-0.2L49.6,59.8L49.6,59.8z"/>
		<path class="st3" d="M58.1,59.8h1.6c0.2,0,0.4,0.2,0.4,0.4v12c0,0.2-0.2,0.4-0.4,0.4h-1.6c-0.2,0-0.4-0.2-0.4-0.4v-12
			C57.7,60,57.9,59.8,58.1,59.8"/>
		<path class="st3" d="M0.5,74.9c-0.3,0-0.4,0.2-0.4,0.4v4.5c0,0.3,0.2,0.4,0.4,0.4c0.3,0,0.4-0.2,0.4-0.4v-4.5
			C1,75.1,0.8,74.9,0.5,74.9"/>
		<path class="st3" d="M9.3,74.9c-0.3,0-0.4,0.2-0.4,0.4v3.4L5.6,75c-0.1-0.1-0.2-0.2-0.3-0.2c-0.2,0-0.4,0.1-0.4,0.4v4.6
			c0,0.3,0.2,0.4,0.4,0.4c0.3,0,0.4-0.2,0.4-0.4v-3.4L9,80.1c0.1,0.1,0.2,0.2,0.3,0.2c0.2,0,0.4-0.1,0.4-0.4v-4.5
			C9.7,75,9.5,74.9,9.3,74.9"/>
		<path class="st3" d="M17.9,74.9h-4.1c-0.3,0-0.4,0.2-0.4,0.4c0,0.2,0.2,0.4,0.4,0.4h1.6v4.1c0,0.3,0.2,0.4,0.4,0.4
			s0.4-0.2,0.4-0.4v-4.1h1.7c0.3,0,0.4-0.2,0.4-0.4C18.3,75.1,18.1,74.9,17.9,74.9"/>
		<path class="st3" d="M25.7,79.4h-2.9v-2h2.7c0.3,0,0.4-0.2,0.4-0.4c0-0.2-0.2-0.4-0.4-0.4h-2.7v-0.8h2.7c0.3,0,0.4-0.2,0.4-0.4
			c0-0.3-0.2-0.4-0.4-0.4h-3.1c-0.3,0-0.4,0.2-0.4,0.4v4.4c0,0.3,0.2,0.4,0.4,0.4h3.4c0.3,0,0.4-0.2,0.4-0.4
			C26.2,79.6,26,79.4,25.7,79.4"/>
		<path class="st3" d="M33.7,78c0.2,0,0.4-0.2,0.6-0.3c0.3-0.2,0.4-0.5,0.4-0.9v-0.6c0-0.4-0.1-0.7-0.4-0.9C34,75.1,33.7,75,33.4,75
			h-3.1c-0.3,0-0.4,0.2-0.4,0.4v4.4c0,0.3,0.2,0.4,0.4,0.4c0.3,0,0.4-0.2,0.4-0.4v-4.1h2.7c0.2,0,0.3,0,0.4,0.1
			c0.1,0.1,0.1,0.2,0.1,0.3v0.6c0,0.1,0,0.2-0.1,0.3s-0.2,0.1-0.4,0.1h-1.9c-0.3,0-0.4,0.2-0.4,0.4c0,0.3,0.2,0.4,0.4,0.4h1.1
			l1.8,2.1c0.1,0.1,0.2,0.2,0.3,0.2c0.3,0,0.4-0.2,0.4-0.4c0-0.1,0-0.2-0.1-0.3L33.7,78z"/>
		<path class="st3" d="M43.3,74.9c-0.3,0-0.4,0.2-0.4,0.4v3.4L39.6,75c-0.1-0.1-0.2-0.2-0.3-0.2c-0.2,0-0.4,0.1-0.4,0.4v4.6
			c0,0.3,0.2,0.4,0.4,0.4c0.3,0,0.4-0.2,0.4-0.4v-3.4l3.3,3.7c0.1,0.1,0.2,0.2,0.3,0.2c0.2,0,0.4-0.1,0.4-0.4v-4.5
			C43.7,75,43.5,74.9,43.3,74.9"/>
		<path class="st3" d="M51.3,79.4h-2.9v-2h2.7c0.3,0,0.4-0.2,0.4-0.4c0-0.2-0.2-0.4-0.4-0.4h-2.7v-0.8h2.7c0.3,0,0.4-0.2,0.4-0.4
			c0-0.3-0.2-0.4-0.4-0.4h-3.2c-0.3,0-0.4,0.2-0.4,0.4v4.4c0,0.3,0.2,0.4,0.4,0.4h3.4c0.3,0,0.4-0.2,0.4-0.4
			C51.7,79.6,51.6,79.4,51.3,79.4"/>
		<path class="st3" d="M59.7,74.9h-4.1c-0.3,0-0.4,0.2-0.4,0.4c0,0.2,0.2,0.4,0.4,0.4h1.6v4.1c0,0.3,0.2,0.4,0.4,0.4
			c0.3,0,0.4-0.2,0.4-0.4v-4.1h1.6c0.3,0,0.4-0.2,0.4-0.4C60,75.1,59.9,74.9,59.7,74.9"/>
	</g>
</g>
</svg>
